<?xml version="1.0" encoding="utf-8"?>


<!-- The icon can be used freely in both personal and commercial projects with no attribution required, but always appreciated. 
You may NOT sub-license, resell, rent, redistribute or otherwise transfer the icon without express written permission from iconmonstr.com -->


<!DOCTYPE svg PUBLIC "-//W3C//DTD SVG 1.1//EN" "http://www.w3.org/Graphics/SVG/1.1/DTD/svg11.dtd">

<svg version="1.1" xmlns="http://www.w3.org/2000/svg" xmlns:xlink="http://www.w3.org/1999/xlink" x="0px" y="0px"

	 width="512px" height="512px" viewBox="0 0 512 512" enable-background="new 0 0 512 512" xml:space="preserve">

<path id="skype-circle-outline-icon" d="M256.417,90c44.34,0,86.026,17.267,117.38,48.62c31.354,31.354,48.62,73.04,48.62,117.38

	c0,44.34-17.267,86.026-48.62,117.38c-31.354,31.353-73.04,48.62-117.38,48.62s-86.026-17.268-117.38-48.62

	c-31.354-31.354-48.62-73.04-48.62-117.38c0-44.34,17.267-86.026,48.62-117.38C170.391,107.267,212.077,90,256.417,90 M256.417,50

	c-113.771,0-206,92.229-206,206s92.229,206,206,206s206-92.229,206-206S370.188,50,256.417,50L256.417,50z M358.687,274.043

	c1.027-5.838,1.595-11.83,1.595-17.963c0-56.855-46.093-102.945-102.948-102.945c-6.479,0-12.809,0.626-18.956,1.771

	c-9.092-5.536-19.769-8.725-31.192-8.725c-33.185,0-60.081,26.898-60.081,60.081c0,11.565,3.275,22.36,8.935,31.526

	c-1.065,5.941-1.651,12.044-1.651,18.291c0,56.858,46.091,102.949,102.946,102.949c6.6,0,13.042-0.646,19.293-1.832

	c9.057,5.471,19.67,8.621,31.022,8.621c33.181,0,60.08-26.9,60.08-60.084C367.729,294.101,364.411,283.244,358.687,274.043z

	 M260.962,328.115c-29.318,0-58.788-13.293-58.639-36.176c0.045-6.903,5.201-13.242,12.059-13.242

	c17.262,0,17.103,25.654,44.591,25.654c19.289,0,25.869-10.521,25.869-17.852c0-26.481-83.354-10.246-83.354-60.056

	c0-26.955,22.146-45.55,56.953-43.506c33.198,1.95,52.647,16.551,54.533,30.191c0.93,8.907-4.998,15.837-15.283,15.837

	c-15.015,0-16.552-20.019-42.403-20.019c-11.666,0-21.517,4.847-21.517,15.368c0,21.989,82.862,9.222,82.862,57.614

	C316.633,309.829,294.3,328.115,260.962,328.115z" fill="#25ABF5"/>

</svg>

